/* XPM */
static char * ci_xpm[] = {
"13 13 3 1",
" 	c None",
".	c #575757",
"+	c #FFFFFF",
".............",
".............",
".............",
".............",
"....+...+....",
".....+.+.....",
"......+......",
".....+.+.....",
"....+...+....",
".............",
".............",
".............",
"............."};
