/* XPM */
static char * m_xpm[] = {
"13 13 3 1",
" 	c None",
".	c #465768",
"+	c #FFFFFF",
".............",
".............",
".............",
".............",
"....+++++....",
"....+...+....",
"....+...+....",
"....+...+....",
"....+++++....",
".............",
".............",
".............",
"............."};
