/* XPM */
static char * d_stuck_xpm[] = {
"13 13 6 1",
" 	c None",
".	c #465768",
"+	c #FFFFFF",
"@	c #FDFDFD",
"#	c #FCFCFC",
"$	c #FBFBFB",
".............",
".............",
".............",
".............",
"....++@++....",
"....++@++....",
"....#$@@$....",
"....++#++....",
"....++$++....",
".............",
".............",
".............",
"............."};
